# xmcd CD database file
#
# Track frame offsets:
#	150
#	20892
#	43522
#	60545
#	80745
#	99472
#	115650
#	136785
#	157867
#	178792
#	200127
#	219612
#
# Disc length: 3187 seconds
#
# Revision: 1
# Processed by: cddbd v1.5.2PL0 Copyright (c) Steve Scherf et al.
# Submitted via: CDex 1.70beta2
#
DISCID=a50c710c
DTITLE=Various Artist - Meren HITS 95
DYEAR=1995
DGENRE=Merengue
TTITLE0=Cesar Flores - Salvaje
TTITLE1=Proyecto Uno - El Tiburon
TTITLE2=Alex Bueno - He Vuelto A Nacer
TTITLE3=Rikarena - Merengue Rico
TTITLE4=Los Homeboys - Que Vaina!
TTITLE5=Tono Rosario - La Gozadera III
TTITLE6=Eddy Herrera - La Bailadora (La Licuadora)
TTITLE7=Zafra Negra - Lo Que No Conviene
TTITLE8=Orq La Joven - Hoy No Estoy Para Nadie
TTITLE9=Rokabanda - Los Hombres Maduros
TTITLE10=Fernandito Villalona - Amigo
TTITLE11=La Artillería - Merengue Sin Letra
EXTD=YEAR: 1995
EXTT0=
EXTT1=
EXTT2=
EXTT3=
EXTT4=
EXTT5=
EXTT6=
EXTT7=
EXTT8=
EXTT9=
EXTT10=
EXTT11=
PLAYORDER=
